    <svg
      xmlns="http://www.w3.org/2000/svg"
      width="1440"
      height="383"
      viewBox="0 0 1440 383"
      fill="none"
    >
      <mask
        id="mask0_5716_9"
        maskUnits="userSpaceOnUse"
        x="0"
        y="0"
        width="1440"
        height="383"
      >
        <rect width="1440" height="383" fill="#D9D9D9" />
      </mask>
      <g mask="url(#mask0_5716_9)">
        <path
          d="M414 481L295.495 101.173C285.07 67.7573 254.13 45 219.126 45H-216"
          stroke="url(#paint0_linear_5716_9)"
        />
        <path
          d="M380 481L269.89 127.226C259.482 93.7833 228.529 71 193.505 71H-211"
          stroke="url(#paint1_linear_5716_9)"
        />
        <path
          d="M345 482L242.72 155.111C232.274 121.727 201.35 99 166.37 99H-210"
          stroke="url(#paint2_linear_5716_9)"
        />
        <path
          d="M308 489L213.498 187.101C203.049 153.722 172.128 131 137.151 131H-211"
          stroke="url(#paint3_linear_5716_9)"
        />
        <path
          d="M266 482L182.73 216.093C172.279 182.718 141.359 160 106.386 160H-201"
          stroke="url(#paint4_linear_5716_9)"
        />
        <path
          d="M1026 481L1144.5 101.173C1154.93 67.7573 1185.87 45 1220.87 45H1656"
          stroke="url(#paint5_linear_5716_9)"
        />
        <path
          d="M1060 481L1170.11 127.226C1180.52 93.7833 1211.47 71 1246.5 71H1651"
          stroke="url(#paint6_linear_5716_9)"
        />
        <path
          d="M1095 482L1197.28 155.111C1207.73 121.727 1238.65 99 1273.63 99H1650"
          stroke="url(#paint7_linear_5716_9)"
        />
        <path
          d="M1132 489L1226.5 187.101C1236.95 153.722 1267.87 131 1302.85 131H1651"
          stroke="url(#paint8_linear_5716_9)"
        />
        <path
          d="M1174 482L1257.27 216.093C1267.72 182.718 1298.64 160 1333.61 160H1641"
          stroke="url(#paint9_linear_5716_9)"
        />
        <circle
          cx="225"
          cy="41"
          r="40.5"
          fill="#0D0D0D"
          stroke="url(#paint10_linear_5716_9)"
        />
        <circle
          cx="349"
          cy="263"
          r="40.5"
          transform="rotate(-180 349 263)"
          fill="#0D0D0D"
          stroke="url(#paint11_linear_5716_9)"
        />
        <circle
          cx="1091"
          cy="263"
          r="40.5"
          fill="#0D0D0D"
          stroke="url(#paint12_linear_5716_9)"
        />
        <circle
          cx="1203"
          cy="45"
          r="40.5"
          transform="rotate(-180 1203 45)"
          fill="#0D0D0D"
          stroke="url(#paint13_linear_5716_9)"
        />
        <path
          fill-rule="evenodd"
          clip-rule="evenodd"
          d="M244.995 29.7806C244.974 30.6471 244.256 31.3336 243.39 31.3148C242.523 31.2939 241.837 30.576 241.856 29.7094L241.941 25.9294L238.163 25.8436C237.297 25.8226 236.61 25.1047 236.629 24.2382C236.65 23.3717 237.368 22.6852 238.235 22.704L243.584 22.8275C244.451 22.8463 245.138 23.5642 245.117 24.4308L244.995 29.7806Z"
          fill="white"
        />
        <path
          fill-rule="evenodd"
          clip-rule="evenodd"
          d="M211.58 35.9443V61.356C211.58 62.817 210.397 63.9996 208.936 63.9996H204.644C203.183 63.9996 202 62.817 202 61.356V35.9443C202 34.4854 203.183 33.3008 204.644 33.3008H208.936C210.397 33.3008 211.58 34.4854 211.58 35.9443Z"
          fill="white"
        />
        <path
          fill-rule="evenodd"
          clip-rule="evenodd"
          d="M235.193 48.8252V61.3563C235.193 62.0574 234.915 62.7293 234.419 63.2254C233.923 63.7214 233.251 63.9998 232.55 63.9998H228.257C227.556 63.9998 226.884 63.7214 226.388 63.2254C225.892 62.7293 225.613 62.0574 225.613 61.3563V48.8252C225.613 48.124 225.892 47.4521 226.388 46.9561C226.884 46.46 227.556 46.1816 228.257 46.1816H232.55C233.251 46.1816 233.923 46.46 234.419 46.9561C234.915 47.4521 235.193 48.124 235.193 48.8252Z"
          fill="white"
        />
        <path
          fill-rule="evenodd"
          clip-rule="evenodd"
          d="M223.387 42.3847V61.3562C223.387 62.8171 222.204 63.9997 220.743 63.9997H216.45C214.989 63.9997 213.807 62.8171 213.807 61.3562V42.3847C213.807 41.6836 214.085 41.0117 214.581 40.5156C215.077 40.0196 215.749 39.7412 216.45 39.7412H220.743C222.204 39.7412 223.387 40.9259 223.387 42.3847Z"
          fill="white"
        />
        <path
          fill-rule="evenodd"
          clip-rule="evenodd"
          d="M247.001 42.3847V61.3562C247.001 62.8171 245.818 63.9997 244.357 63.9997H240.064C238.603 63.9997 237.421 62.8171 237.421 61.3562V42.3847C237.421 41.6836 237.699 41.0117 238.195 40.5156C238.691 40.0196 239.363 39.7412 240.064 39.7412H244.357C245.818 39.7412 247.001 40.9259 247.001 42.3847Z"
          fill="white"
        />
        <path
          fill-rule="evenodd"
          clip-rule="evenodd"
          d="M204.512 21.825C203.817 21.3059 203.677 20.3201 204.198 19.6273C204.717 18.9345 205.7 18.7943 206.395 19.3133L218.855 28.6588H224.772C225.256 28.6588 225.71 28.8807 226.007 29.2595L230.794 35.3524L241.887 23.7757C242.486 23.1499 243.48 23.129 244.106 23.7297C244.732 24.3283 244.753 25.3225 244.154 25.9483L231.809 38.829C231.495 39.1576 231.054 39.3334 230.599 39.3104C230.145 39.2894 229.722 39.0697 229.442 38.7118L224.01 31.7984H218.332C217.993 31.7984 217.662 31.6896 217.39 31.4844L204.512 21.825Z"
          fill="white"
        />
        <path
          d="M367.801 246.039H367.73V242.231C367.73 241.551 367.179 241 366.499 241C365.82 241 365.268 241.551 365.268 242.231V246.039H365.197C363.433 246.039 361.997 247.474 361.997 249.239V273.997C361.997 275.762 363.433 277.198 365.197 277.198H365.268V281.006C365.268 281.685 365.82 282.236 366.499 282.236C367.179 282.236 367.73 281.685 367.73 281.006V277.198H367.801C369.566 277.198 371.001 275.762 371.001 273.997V249.239C371.001 247.474 369.566 246.039 367.801 246.039Z"
          fill="white"
        />
        <path
          d="M355.802 257.976H355.731V256.088C355.731 255.409 355.18 254.857 354.5 254.857C353.821 254.857 353.269 255.409 353.269 256.088V257.976H353.198C351.434 257.976 349.998 259.412 349.998 261.176V279.681C349.998 281.445 351.434 282.881 353.198 282.881H353.269V284.769C353.269 285.448 353.821 286 354.5 286C355.18 286 355.731 285.448 355.731 284.769V282.881H355.802C357.566 282.881 359.002 281.445 359.002 279.681V261.176C359.002 259.412 357.566 257.976 355.802 257.976Z"
          fill="white"
        />
        <path
          d="M343.804 253.92H343.733V251.367C343.733 250.687 343.182 250.136 342.502 250.136C341.823 250.136 341.271 250.687 341.271 251.367V253.92H341.2C339.436 253.92 338 255.356 338 257.12V268.459C338 270.224 339.436 271.659 341.2 271.659H341.271V274.213C341.271 274.892 341.823 275.444 342.502 275.444C343.182 275.444 343.733 274.892 343.733 274.213V271.659H343.804C345.568 271.659 347.004 270.224 347.004 268.459V257.12C347.004 255.356 345.568 253.92 343.804 253.92Z"
          fill="white"
        />
        <path
          d="M331.804 246.617H331.733V242.231C331.733 241.551 331.182 241 330.502 241C329.823 241 329.271 241.551 329.271 242.231V246.617H329.2C327.436 246.617 326 248.052 326 249.817V272.674C326 274.439 327.436 275.874 329.2 275.874H329.271V280.26C329.271 280.94 329.823 281.491 330.502 281.491C331.182 281.491 331.733 280.94 331.733 280.26V275.874H331.804C333.568 275.874 335.004 274.439 335.004 272.674V249.817C335.004 248.052 333.568 246.617 331.804 246.617Z"
          fill="white"
        />
        <path
          d="M1192.86 31.6715C1194.17 30.8363 1195.05 29.3702 1195.05 27.7034C1195.05 25.1096 1192.94 23 1190.34 23C1187.75 23 1185.64 25.1096 1185.64 27.7034C1185.64 29.3702 1186.51 30.8363 1187.82 31.6715C1183.89 32.774 1181 36.3902 1181 40.6697C1181 41.0315 1181.02 41.4005 1181.07 41.7686C1181.18 42.6128 1181.9 43.25 1182.75 43.25H1197.94C1198.79 43.25 1199.51 42.6128 1199.62 41.7686C1199.66 41.4005 1199.69 41.0315 1199.69 40.6697C1199.69 36.3902 1196.79 32.774 1192.86 31.6715Z"
          fill="white"
        />
        <path
          d="M1219.17 56.4215C1220.48 55.5863 1221.35 54.1202 1221.35 52.4534C1221.35 49.8596 1219.24 47.75 1216.65 47.75C1214.06 47.75 1211.95 49.8596 1211.95 52.4534C1211.95 54.1202 1212.82 55.5863 1214.13 56.4215C1210.2 57.524 1207.31 61.1402 1207.31 65.4197C1207.31 65.7815 1207.33 66.1505 1207.38 66.5186C1207.48 67.3628 1208.21 68 1209.06 68H1224.24C1225.1 68 1225.82 67.3628 1225.92 66.5186C1225.97 66.1505 1225.99 65.7815 1225.99 65.4197C1225.99 61.1402 1223.1 57.524 1219.17 56.4215Z"
          fill="white"
        />
        <path
          d="M1222.5 23H1208.06C1206.14 23 1204.57 24.566 1204.57 26.4902V30.1946C1204.57 30.3458 1204.51 30.4898 1204.4 30.5924L1201.56 33.2087C1200.58 34.0934 1201.05 35.7575 1202.35 35.9924L1204.13 36.3317C1204.39 36.3803 1204.57 36.6035 1204.57 36.8627V39.7598C1204.57 41.684 1206.14 43.25 1208.06 43.25H1222.5C1224.43 43.25 1225.99 41.684 1225.99 39.7598V26.4902C1225.99 24.566 1224.43 23 1222.5 23ZM1222.86 34.8665L1222.25 38.7518C1222.15 39.3476 1221.53 39.7058 1220.97 39.4907L1217.29 38.0831C1216.73 37.8689 1216.67 37.1012 1217.19 36.8006L1217.93 36.374L1216.46 33.8333C1216.34 33.6164 1216.06 33.5426 1215.84 33.6677L1213.47 35.0375C1212.6 35.5379 1211.5 35.2409 1211 34.3751L1207.82 28.877C1207.57 28.4351 1207.72 27.8699 1208.16 27.6152L1209.7 26.7296C1210.14 26.4749 1210.7 26.6261 1210.96 27.068L1213 30.6086C1213.13 30.8255 1213.4 30.8993 1213.62 30.7742L1215.99 29.4044C1216.86 28.904 1217.97 29.201 1218.46 30.0668L1221.06 34.565L1221.8 34.1375C1222.32 33.8378 1222.96 34.2743 1222.86 34.8656L1222.86 34.8665Z"
          fill="white"
        />
        <path
          d="M1198.93 47.75H1184.49C1182.57 47.75 1181 49.316 1181 51.2402V64.5098C1181 66.434 1182.57 68 1184.49 68H1198.93C1200.85 68 1202.42 66.434 1202.42 64.5098V61.6127C1202.42 61.3535 1202.6 61.1303 1202.86 61.0817L1204.64 60.7424C1205.92 60.5435 1206.42 58.8011 1205.44 57.9587L1202.59 55.3424C1202.48 55.2398 1202.42 55.0958 1202.42 54.9446V51.2402C1202.42 49.316 1200.85 47.75 1198.93 47.75ZM1198.23 56.7716L1197.49 56.3441L1194.89 60.8423C1194.39 61.7081 1193.28 62.0051 1192.42 61.5047L1190.04 60.1349C1189.83 60.0098 1189.55 60.0845 1189.43 60.3005L1187.38 63.8411C1187.13 64.283 1186.56 64.4342 1186.12 64.1795L1184.59 63.2939C1184.14 63.0392 1183.99 62.474 1184.25 62.0321L1187.42 56.534C1187.92 55.6682 1189.03 55.3712 1189.9 55.8716L1192.27 57.2414C1192.48 57.3665 1192.76 57.2918 1192.89 57.0758L1194.35 54.5351L1193.61 54.1085C1193.1 53.8088 1193.16 53.0411 1193.72 52.826L1197.39 51.4184C1197.96 51.2024 1198.58 51.5606 1198.67 52.1573L1199.29 56.0426C1199.38 56.6348 1198.74 57.0704 1198.23 56.7707L1198.23 56.7716Z"
          fill="white"
        />
        <path
          d="M1113.77 265.474H1096.75C1096 265.474 1095.4 266.08 1095.4 266.824C1095.4 267.203 1095.56 267.544 1095.81 267.79L1107.8 279.778C1108.04 280.044 1108.4 280.21 1108.79 280.21C1109.26 280.21 1109.67 279.973 1109.91 279.613C1112.86 276.191 1114.75 271.846 1115.09 267.066C1115.11 266.985 1115.12 266.905 1115.12 266.824C1115.12 266.08 1114.52 265.474 1113.77 265.474Z"
          fill="white"
        />
        <path
          d="M1091.61 241C1090.86 241.005 1090.26 241.607 1090.26 242.35V261.27C1090.26 262.019 1090.86 262.626 1091.61 262.626H1110.53C1111.27 262.626 1111.88 262.019 1111.88 261.27C1111.21 250.382 1102.5 241.668 1091.61 241Z"
          fill="white"
        />
        <path
          d="M1102.01 278.674L1088.05 264.715C1087.81 264.474 1087.67 264.137 1087.67 263.772L1087.66 244.056C1087.66 243.312 1087.06 242.71 1086.32 242.71C1074.98 243.402 1066 252.822 1066 264.332C1066 276.296 1075.7 286 1087.66 286C1093.12 286 1098.11 283.981 1101.92 280.65C1102.21 280.404 1102.4 280.034 1102.4 279.622C1102.4 279.257 1102.25 278.921 1102.01 278.674Z"
          fill="white"
        />
        <path
          fill-rule="evenodd"
          clip-rule="evenodd"
          d="M244.995 29.7806C244.974 30.6471 244.256 31.3336 243.39 31.3148C242.523 31.2939 241.837 30.576 241.856 29.7094L241.941 25.9294L238.163 25.8436C237.297 25.8226 236.61 25.1047 236.629 24.2382C236.65 23.3717 237.368 22.6852 238.235 22.704L243.584 22.8275C244.451 22.8463 245.138 23.5642 245.117 24.4308L244.995 29.7806Z"
          fill="white"
        />
        <path
          fill-rule="evenodd"
          clip-rule="evenodd"
          d="M211.58 35.9443V61.356C211.58 62.817 210.397 63.9996 208.936 63.9996H204.644C203.183 63.9996 202 62.817 202 61.356V35.9443C202 34.4854 203.183 33.3008 204.644 33.3008H208.936C210.397 33.3008 211.58 34.4854 211.58 35.9443Z"
          fill="white"
        />
        <path
          fill-rule="evenodd"
          clip-rule="evenodd"
          d="M235.193 48.8252V61.3563C235.193 62.0574 234.915 62.7293 234.419 63.2254C233.923 63.7214 233.251 63.9998 232.55 63.9998H228.257C227.556 63.9998 226.884 63.7214 226.388 63.2254C225.892 62.7293 225.613 62.0574 225.613 61.3563V48.8252C225.613 48.124 225.892 47.4521 226.388 46.9561C226.884 46.46 227.556 46.1816 228.257 46.1816H232.55C233.251 46.1816 233.923 46.46 234.419 46.9561C234.915 47.4521 235.193 48.124 235.193 48.8252Z"
          fill="white"
        />
        <path
          fill-rule="evenodd"
          clip-rule="evenodd"
          d="M223.387 42.3847V61.3562C223.387 62.8171 222.204 63.9997 220.743 63.9997H216.45C214.989 63.9997 213.807 62.8171 213.807 61.3562V42.3847C213.807 41.6836 214.085 41.0117 214.581 40.5156C215.077 40.0196 215.749 39.7412 216.45 39.7412H220.743C222.204 39.7412 223.387 40.9259 223.387 42.3847Z"
          fill="white"
        />
        <path
          fill-rule="evenodd"
          clip-rule="evenodd"
          d="M247.001 42.3847V61.3562C247.001 62.8171 245.818 63.9997 244.357 63.9997H240.064C238.603 63.9997 237.421 62.8171 237.421 61.3562V42.3847C237.421 41.6836 237.699 41.0117 238.195 40.5156C238.691 40.0196 239.363 39.7412 240.064 39.7412H244.357C245.818 39.7412 247.001 40.9259 247.001 42.3847Z"
          fill="white"
        />
        <path
          fill-rule="evenodd"
          clip-rule="evenodd"
          d="M204.512 21.825C203.817 21.3059 203.677 20.3201 204.198 19.6273C204.717 18.9345 205.7 18.7943 206.395 19.3133L218.855 28.6588H224.772C225.256 28.6588 225.71 28.8807 226.007 29.2595L230.794 35.3524L241.887 23.7757C242.486 23.1499 243.48 23.129 244.106 23.7297C244.732 24.3283 244.753 25.3225 244.154 25.9483L231.809 38.829C231.495 39.1576 231.054 39.3334 230.599 39.3104C230.145 39.2894 229.722 39.0697 229.442 38.7118L224.01 31.7984H218.332C217.993 31.7984 217.662 31.6896 217.39 31.4844L204.512 21.825Z"
          fill="white"
        />
        <path
          d="M367.801 246.039H367.73V242.231C367.73 241.551 367.179 241 366.499 241C365.82 241 365.268 241.551 365.268 242.231V246.039H365.197C363.433 246.039 361.997 247.474 361.997 249.239V273.997C361.997 275.762 363.433 277.198 365.197 277.198H365.268V281.006C365.268 281.685 365.82 282.236 366.499 282.236C367.179 282.236 367.73 281.685 367.73 281.006V277.198H367.801C369.566 277.198 371.001 275.762 371.001 273.997V249.239C371.001 247.474 369.566 246.039 367.801 246.039Z"
          fill="white"
        />
        <path
          d="M355.802 257.976H355.731V256.088C355.731 255.409 355.18 254.857 354.5 254.857C353.821 254.857 353.269 255.409 353.269 256.088V257.976H353.198C351.434 257.976 349.998 259.412 349.998 261.176V279.681C349.998 281.445 351.434 282.881 353.198 282.881H353.269V284.769C353.269 285.448 353.821 286 354.5 286C355.18 286 355.731 285.448 355.731 284.769V282.881H355.802C357.566 282.881 359.002 281.445 359.002 279.681V261.176C359.002 259.412 357.566 257.976 355.802 257.976Z"
          fill="white"
        />
        <path
          d="M343.804 253.92H343.733V251.367C343.733 250.687 343.182 250.136 342.502 250.136C341.823 250.136 341.271 250.687 341.271 251.367V253.92H341.2C339.436 253.92 338 255.356 338 257.12V268.459C338 270.224 339.436 271.659 341.2 271.659H341.271V274.213C341.271 274.892 341.823 275.444 342.502 275.444C343.182 275.444 343.733 274.892 343.733 274.213V271.659H343.804C345.568 271.659 347.004 270.224 347.004 268.459V257.12C347.004 255.356 345.568 253.92 343.804 253.92Z"
          fill="white"
        />
        <path
          d="M331.804 246.617H331.733V242.231C331.733 241.551 331.182 241 330.502 241C329.823 241 329.271 241.551 329.271 242.231V246.617H329.2C327.436 246.617 326 248.052 326 249.817V272.674C326 274.439 327.436 275.874 329.2 275.874H329.271V280.26C329.271 280.94 329.823 281.491 330.502 281.491C331.182 281.491 331.733 280.94 331.733 280.26V275.874H331.804C333.568 275.874 335.004 274.439 335.004 272.674V249.817C335.004 248.052 333.568 246.617 331.804 246.617Z"
          fill="white"
        />
        <path
          d="M1192.86 31.6715C1194.17 30.8363 1195.05 29.3702 1195.05 27.7034C1195.05 25.1096 1192.94 23 1190.34 23C1187.75 23 1185.64 25.1096 1185.64 27.7034C1185.64 29.3702 1186.51 30.8363 1187.82 31.6715C1183.89 32.774 1181 36.3902 1181 40.6697C1181 41.0315 1181.02 41.4005 1181.07 41.7686C1181.18 42.6128 1181.9 43.25 1182.75 43.25H1197.94C1198.79 43.25 1199.51 42.6128 1199.62 41.7686C1199.66 41.4005 1199.69 41.0315 1199.69 40.6697C1199.69 36.3902 1196.79 32.774 1192.86 31.6715Z"
          fill="white"
        />
        <path
          d="M1219.17 56.4215C1220.48 55.5863 1221.35 54.1202 1221.35 52.4534C1221.35 49.8596 1219.24 47.75 1216.65 47.75C1214.06 47.75 1211.95 49.8596 1211.95 52.4534C1211.95 54.1202 1212.82 55.5863 1214.13 56.4215C1210.2 57.524 1207.31 61.1402 1207.31 65.4197C1207.31 65.7815 1207.33 66.1505 1207.38 66.5186C1207.48 67.3628 1208.21 68 1209.06 68H1224.24C1225.1 68 1225.82 67.3628 1225.92 66.5186C1225.97 66.1505 1225.99 65.7815 1225.99 65.4197C1225.99 61.1402 1223.1 57.524 1219.17 56.4215Z"
          fill="white"
        />
        <path
          d="M1222.5 23H1208.06C1206.14 23 1204.57 24.566 1204.57 26.4902V30.1946C1204.57 30.3458 1204.51 30.4898 1204.4 30.5924L1201.56 33.2087C1200.58 34.0934 1201.05 35.7575 1202.35 35.9924L1204.13 36.3317C1204.39 36.3803 1204.57 36.6035 1204.57 36.8627V39.7598C1204.57 41.684 1206.14 43.25 1208.06 43.25H1222.5C1224.43 43.25 1225.99 41.684 1225.99 39.7598V26.4902C1225.99 24.566 1224.43 23 1222.5 23ZM1222.86 34.8665L1222.25 38.7518C1222.15 39.3476 1221.53 39.7058 1220.97 39.4907L1217.29 38.0831C1216.73 37.8689 1216.67 37.1012 1217.19 36.8006L1217.93 36.374L1216.46 33.8333C1216.34 33.6164 1216.06 33.5426 1215.84 33.6677L1213.47 35.0375C1212.6 35.5379 1211.5 35.2409 1211 34.3751L1207.82 28.877C1207.57 28.4351 1207.72 27.8699 1208.16 27.6152L1209.7 26.7296C1210.14 26.4749 1210.7 26.6261 1210.96 27.068L1213 30.6086C1213.13 30.8255 1213.4 30.8993 1213.62 30.7742L1215.99 29.4044C1216.86 28.904 1217.97 29.201 1218.46 30.0668L1221.06 34.565L1221.8 34.1375C1222.32 33.8378 1222.96 34.2743 1222.86 34.8656L1222.86 34.8665Z"
          fill="white"
        />
        <path
          d="M1198.93 47.75H1184.49C1182.57 47.75 1181 49.316 1181 51.2402V64.5098C1181 66.434 1182.57 68 1184.49 68H1198.93C1200.85 68 1202.42 66.434 1202.42 64.5098V61.6127C1202.42 61.3535 1202.6 61.1303 1202.86 61.0817L1204.64 60.7424C1205.92 60.5435 1206.42 58.8011 1205.44 57.9587L1202.59 55.3424C1202.48 55.2398 1202.42 55.0958 1202.42 54.9446V51.2402C1202.42 49.316 1200.85 47.75 1198.93 47.75ZM1198.23 56.7716L1197.49 56.3441L1194.89 60.8423C1194.39 61.7081 1193.28 62.0051 1192.42 61.5047L1190.04 60.1349C1189.83 60.0098 1189.55 60.0845 1189.43 60.3005L1187.38 63.8411C1187.13 64.283 1186.56 64.4342 1186.12 64.1795L1184.59 63.2939C1184.14 63.0392 1183.99 62.474 1184.25 62.0321L1187.42 56.534C1187.92 55.6682 1189.03 55.3712 1189.9 55.8716L1192.27 57.2414C1192.48 57.3665 1192.76 57.2918 1192.89 57.0758L1194.35 54.5351L1193.61 54.1085C1193.1 53.8088 1193.16 53.0411 1193.72 52.826L1197.39 51.4184C1197.96 51.2024 1198.58 51.5606 1198.67 52.1573L1199.29 56.0426C1199.38 56.6348 1198.74 57.0704 1198.23 56.7707L1198.23 56.7716Z"
          fill="white"
        />
        <path
          d="M1113.77 265.474H1096.75C1096 265.474 1095.4 266.08 1095.4 266.824C1095.4 267.203 1095.56 267.544 1095.81 267.79L1107.8 279.778C1108.04 280.044 1108.4 280.21 1108.79 280.21C1109.26 280.21 1109.67 279.973 1109.91 279.613C1112.86 276.191 1114.75 271.846 1115.09 267.066C1115.11 266.985 1115.12 266.905 1115.12 266.824C1115.12 266.08 1114.52 265.474 1113.77 265.474Z"
          fill="white"
        />
        <path
          d="M1091.61 241C1090.86 241.005 1090.26 241.607 1090.26 242.35V261.27C1090.26 262.019 1090.86 262.626 1091.61 262.626H1110.53C1111.27 262.626 1111.88 262.019 1111.88 261.27C1111.21 250.382 1102.5 241.668 1091.61 241Z"
          fill="white"
        />
        <path
          d="M1102.01 278.674L1088.05 264.715C1087.81 264.474 1087.67 264.137 1087.67 263.772L1087.66 244.056C1087.66 243.312 1087.06 242.71 1086.32 242.71C1074.98 243.402 1066 252.822 1066 264.332C1066 276.296 1075.7 286 1087.66 286C1093.12 286 1098.11 283.981 1101.92 280.65C1102.21 280.404 1102.4 280.034 1102.4 279.622C1102.4 279.257 1102.25 278.921 1102.01 278.674Z"
          fill="white"
        />
      </g>
      <defs>
        <linearGradient
          id="paint0_linear_5716_9"
          x1="99"
          y1="45"
          x2="99"
          y2="481"
          gradientUnits="userSpaceOnUse"
        >
          <stop stop-color="white" stop-opacity="0.3" />
          <stop offset="0.85" stop-color="white" stop-opacity="0" />
        </linearGradient>
        <linearGradient
          id="paint1_linear_5716_9"
          x1="84.5"
          y1="71"
          x2="84.5"
          y2="481"
          gradientUnits="userSpaceOnUse"
        >
          <stop stop-color="white" stop-opacity="0.3" />
          <stop offset="0.85" stop-color="white" stop-opacity="0" />
        </linearGradient>
        <linearGradient
          id="paint2_linear_5716_9"
          x1="67.5"
          y1="99"
          x2="67.5"
          y2="482"
          gradientUnits="userSpaceOnUse"
        >
          <stop stop-color="white" stop-opacity="0.3" />
          <stop offset="0.85" stop-color="white" stop-opacity="0" />
        </linearGradient>
        <linearGradient
          id="paint3_linear_5716_9"
          x1="48.5"
          y1="131"
          x2="48.5"
          y2="489"
          gradientUnits="userSpaceOnUse"
        >
          <stop stop-color="white" stop-opacity="0.3" />
          <stop offset="0.85" stop-color="white" stop-opacity="0" />
        </linearGradient>
        <linearGradient
          id="paint4_linear_5716_9"
          x1="32.5"
          y1="160"
          x2="32.5"
          y2="482"
          gradientUnits="userSpaceOnUse"
        >
          <stop stop-color="white" stop-opacity="0.3" />
          <stop offset="0.85" stop-color="white" stop-opacity="0" />
        </linearGradient>
        <linearGradient
          id="paint5_linear_5716_9"
          x1="1341"
          y1="45"
          x2="1341"
          y2="481"
          gradientUnits="userSpaceOnUse"
        >
          <stop stop-color="white" stop-opacity="0.3" />
          <stop offset="0.85" stop-color="white" stop-opacity="0" />
        </linearGradient>
        <linearGradient
          id="paint6_linear_5716_9"
          x1="1355.5"
          y1="71"
          x2="1355.5"
          y2="481"
          gradientUnits="userSpaceOnUse"
        >
          <stop stop-color="white" stop-opacity="0.3" />
          <stop offset="0.85" stop-color="white" stop-opacity="0" />
        </linearGradient>
        <linearGradient
          id="paint7_linear_5716_9"
          x1="1372.5"
          y1="99"
          x2="1372.5"
          y2="482"
          gradientUnits="userSpaceOnUse"
        >
          <stop stop-color="white" stop-opacity="0.3" />
          <stop offset="0.85" stop-color="white" stop-opacity="0" />
        </linearGradient>
        <linearGradient
          id="paint8_linear_5716_9"
          x1="1391.5"
          y1="131"
          x2="1391.5"
          y2="489"
          gradientUnits="userSpaceOnUse"
        >
          <stop stop-color="white" stop-opacity="0.3" />
          <stop offset="0.85" stop-color="white" stop-opacity="0" />
        </linearGradient>
        <linearGradient
          id="paint9_linear_5716_9"
          x1="1407.5"
          y1="160"
          x2="1407.5"
          y2="482"
          gradientUnits="userSpaceOnUse"
        >
          <stop stop-color="white" stop-opacity="0.3" />
          <stop offset="0.85" stop-color="white" stop-opacity="0" />
        </linearGradient>
        <linearGradient
          id="paint10_linear_5716_9"
          x1="225"
          y1="0"
          x2="225"
          y2="82"
          gradientUnits="userSpaceOnUse"
        >
          <stop stop-color="white" stop-opacity="0.3" />
          <stop offset="1" stop-color="white" stop-opacity="0" />
        </linearGradient>
        <linearGradient
          id="paint11_linear_5716_9"
          x1="349"
          y1="222"
          x2="349"
          y2="304"
          gradientUnits="userSpaceOnUse"
        >
          <stop stop-color="white" stop-opacity="0.3" />
          <stop offset="1" stop-color="white" stop-opacity="0" />
        </linearGradient>
        <linearGradient
          id="paint12_linear_5716_9"
          x1="1091"
          y1="222"
          x2="1091"
          y2="304"
          gradientUnits="userSpaceOnUse"
        >
          <stop stop-color="white" stop-opacity="0.3" />
          <stop offset="1" stop-color="white" stop-opacity="0" />
        </linearGradient>
        <linearGradient
          id="paint13_linear_5716_9"
          x1="1203"
          y1="4"
          x2="1203"
          y2="86"
          gradientUnits="userSpaceOnUse"
        >
          <stop stop-color="white" stop-opacity="0.3" />
          <stop offset="1" stop-color="white" stop-opacity="0" />
        </linearGradient>
      </defs>
    </svg>